<svg xmlns="http://www.w3.org/2000/svg" width="18" height="15" fill="none"  xmlns:v="https://vecta.io/nano"><path d="M17.313 6.438h-1.75v-1.75c0-.219-.219-.437-.437-.437h-.875a.45.45 0 0 0-.437.438v1.75h-1.75a.45.45 0 0 0-.437.438v.875a.43.43 0 0 0 .438.438h1.75v1.75a.43.43 0 0 0 .438.438h.875a.45.45 0 0 0 .438-.437v-1.75h1.75a.45.45 0 0 0 .438-.437v-.875c0-.219-.219-.437-.437-.437zM6.375 7.75a3.51 3.51 0 0 0 3.5-3.5c0-1.914-1.586-3.5-3.5-3.5a3.51 3.51 0 0 0-3.5 3.5 3.49 3.49 0 0 0 3.5 3.5zm2.434.875h-.465c-.602.301-1.258.438-1.969.438s-1.395-.137-1.996-.437h-.465C1.891 8.625.25 10.293.25 12.316v1.121c0 .738.574 1.313 1.313 1.313h9.625c.711 0 1.313-.574 1.313-1.312v-1.121c0-2.023-1.668-3.691-3.691-3.691z" fill="#fff"/></svg>