<svg xmlns="http://www.w3.org/2000/svg" width="172" height="50" fill="none"  xmlns:v="https://vecta.io/nano"><g clip-path="url(#A)"><g fill-rule="evenodd"><path d="M49.847 15.409c-1.702 1.177-3.604 2.078-5.839 2.389-2.169.312-3.971-.346-5.572-1.42l-8.942-6.267c-.334-.242-.867-.242-1.201.035L5.07 28.255c-.1.069-.2.173-.334.277-.067-.035-.133-.069-.2-.139l-2.669-2.216C.866 25.312.132 24.308-.034 23.13c-.067-.45.067-.935.234-1.35.467-1.108 1.268-2.043 2.302-2.839L24.623 1.697c.801-.623 1.668-1.143 2.736-1.489a3.87 3.87 0 0 1 2.502 0c.867.312 1.602.693 2.269 1.247l1.768 1.385 15.715 12.396c.067.035.133.104.233.173z" fill="#00b9e4"/><path d="M39.739 50H11.478c-1.034 0-2.002-.069-2.97-.346-2.102-.554-3.27-1.697-3.603-3.393-.1-.485-.133-1.004-.133-1.489v-9.418c0-.139.067-.277.167-.381l8.308-6.406c.033 0 .067-.035.133-.104v14.439c0 .416.2.554.734.554h16.549c3.837 0 7.174 1.835 8.408 4.64L39.739 50z" fill="#3f9c35"/></g><g fill="#262262"><path d="M17.317 30.748a.69.69 0 0 1-.534-.208c-.133-.138-.167-.312-.167-.554v-6.06c0-.242.067-.45.2-.554a.69.69 0 0 1 .534-.208c.2 0 .367.035.467.139s.233.208.334.416l2.169 4.121 2.169-4.12c.1-.173.2-.312.334-.416.134-.069.267-.139.467-.139a.69.69 0 0 1 .534.208c.134.139.2.312.2.554v6.094c0 .519-.234.762-.701.762s-.734-.242-.734-.762v-3.878l-1.668 3.116c-.067.139-.167.242-.267.312s-.2.104-.367.104-.267-.035-.367-.104-.167-.173-.267-.312l-1.668-3.082v3.844c.033.485-.2.727-.667.727zm9.442 0c-.267 0-.467-.069-.601-.208s-.2-.346-.2-.623v-5.852c0-.554.267-.831.801-.831h2.469c.801 0 1.401.208 1.835.589.434.415.634.97.634 1.662 0 .554-.133 1.004-.4 1.385s-.667.623-1.168.762c.367.104.667.381.867.796l.634 1.212c.133.277.167.519.067.727s-.3.346-.634.346c-.234 0-.4-.035-.534-.139a1.24 1.24 0 0 1-.367-.45l-.968-1.87c-.1-.208-.234-.346-.367-.415s-.334-.104-.534-.104h-.767v2.112c0 .277-.067.485-.2.623-.1.208-.3.277-.567.277zm.801-4.12h1.401c.834 0 1.268-.346 1.268-1.039s-.434-1.039-1.268-1.039H27.56v2.078zm6.34 4.12a.8.8 0 0 1-.501-.173c-.133-.104-.2-.242-.234-.415s.033-.346.167-.519L35.3 26.94l-1.902-2.597c-.133-.173-.2-.381-.167-.554s.1-.312.233-.416a.8.8 0 0 1 .501-.173c.3 0 .567.173.834.519l1.435 2.043 1.401-2.043c.134-.173.267-.312.4-.416s.267-.139.434-.139a.8.8 0 0 1 .501.173c.133.104.2.242.233.415s-.033.346-.167.554l-1.902 2.597 1.969 2.701c.134.173.2.346.167.519s-.1.312-.233.415a.8.8 0 0 1-.501.173c-.167 0-.3-.035-.434-.139s-.267-.208-.4-.415l-1.501-2.112-1.468 2.112a2.28 2.28 0 0 1-.4.415c-.133.103-.3.173-.434.173z"/></g><path fill-rule="evenodd" d="M14.815 41.344h.5l27.76.069c1.034 0 2.002-.069 2.969-.312 2.102-.554 3.27-1.697 3.637-3.359a7.49 7.49 0 0 0 .133-1.489l.033-9.418c0-.139-.067-.277-.167-.381l-8.308-6.406c-.033 0-.067-.035-.133-.104v.346l-.033 14.093c0 .416-.2.554-.734.554-5.505 0-11.044-.035-16.549-.035-3.837 0-7.174 1.801-8.408 4.64-.267.519-.467 1.143-.701 1.801z" fill="#ed2939"/><g fill="#262262"><path d="M69.502 23.968c-.3 0-.467-.173-.467-.485v-7.964c0-.346.167-.485.467-.485.133 0 .234.035.3.069a.95.95 0 0 1 .2.277l3.103 6.094 3.103-6.094c.067-.138.133-.208.2-.277s.167-.069.3-.069c.3 0 .434.173.434.485v7.964c0 .346-.167.485-.467.485s-.467-.173-.467-.485v-6.475l-2.703 5.298c-.067.104-.1.173-.167.242a.5.5 0 0 1-.267.069.61.61 0 0 1-.267-.069c-.067-.035-.133-.139-.167-.208l-2.703-5.332v6.44c0 .346-.133.519-.434.519zm12.41.035c-.801 0-1.468-.277-1.902-.796-.467-.519-.667-1.247-.667-2.216 0-.242.133-.381.4-.381h4.004c-.033-.693-.234-1.212-.601-1.558s-.834-.554-1.468-.554a3.19 3.19 0 0 0-.801.104 2.81 2.81 0 0 0-.801.381c-.2.104-.334.139-.434.069s-.167-.208-.167-.346c0-.173.067-.277.234-.415.267-.208.601-.346.934-.45.367-.104.701-.173 1.068-.173.934 0 1.668.277 2.202.831s.801 1.316.801 2.285c0 .623-.1 1.212-.334 1.662-.234.485-.567.831-.968 1.108a2.67 2.67 0 0 1-1.501.45zm0-.762a1.65 1.65 0 0 0 1.268-.519c.334-.346.501-.831.567-1.42h-3.503c.033.623.167 1.108.467 1.454.234.312.667.485 1.201.485zm5.339.727c-.334 0-.501-.173-.501-.519v-5.194c0-.346.167-.519.467-.519.334 0 .467.173.467.519v.658a1.84 1.84 0 0 1 .734-.866c.334-.208.734-.312 1.201-.346.267-.035.4.104.4.416.033.277-.133.45-.434.485l-.2.035c-.567.035-.968.242-1.268.554s-.434.727-.434 1.281v3.012a.39.39 0 0 1-.434.485zm4.871 0c-.334 0-.467-.173-.467-.519V15.52c0-.346.167-.519.467-.519.334 0 .501.173.501.519v4.986h.033l2.469-2.458c.1-.104.2-.208.3-.242s.2-.104.334-.104c.2 0 .334.069.367.242.067.139.033.312-.133.45l-2.336 2.32 2.569 2.493c.167.173.2.312.133.485s-.2.242-.367.242c-.133 0-.267-.035-.367-.104s-.2-.139-.334-.277l-2.669-2.562h-.033v2.389c.033.416-.133.589-.467.589zm8.141.035c-.8 0-1.468-.277-1.901-.796-.467-.519-.667-1.247-.667-2.216 0-.242.133-.381.4-.381h4.004c-.034-.693-.234-1.212-.601-1.558s-.834-.554-1.468-.554a3.19 3.19 0 0 0-.801.104c-.267.069-.534.208-.801.381-.2.104-.334.139-.434.069s-.167-.208-.167-.346c0-.173.067-.277.234-.415.267-.208.6-.346.934-.45.367-.104.701-.173 1.067-.173.935 0 1.669.277 2.202.831s.801 1.316.801 2.285c0 .623-.1 1.212-.333 1.662-.234.485-.568.831-.968 1.108s-.968.45-1.502.45zm0-.762a1.65 1.65 0 0 0 1.268-.519c.333-.346.501-.831.568-1.42h-3.504c.033.623.167 1.108.467 1.454.234.312.634.485 1.201.485zm4.872.623a.4.4 0 0 1-.4-.277c-.034-.173 0-.381.167-.554l3.203-4.432h-3.037c-.267 0-.4-.139-.4-.415 0-.242.133-.381.4-.381h3.704c.233 0 .4.104.434.277.066.173 0 .346-.134.554l-3.236 4.467h3.169c.267 0 .401.139.401.381 0 .277-.134.416-.401.416h-3.87v-.035zm6.506-7.514c-.433 0-.634-.208-.634-.623s.201-.623.634-.623.634.208.634.623-.2.623-.634.623zm0 7.583c-.333 0-.467-.173-.467-.554v-5.09c0-.346.167-.519.467-.519.334 0 .501.173.501.519v5.09c0 .381-.167.554-.501.554zm-42.14 14.994c-.334 0-.501-.173-.501-.519v-7.826c0-.346.167-.519.501-.519h2.836c.901 0 1.602.208 2.102.658s.734 1.073.734 1.87c0 .658-.167 1.177-.501 1.593s-.834.693-1.435.796c.367.139.701.45.934.97l1.168 2.216c.1.173.1.346.033.485a.42.42 0 0 1-.4.242.55.55 0 0 1-.334-.104c-.1-.069-.167-.173-.234-.277l-1.301-2.528c-.2-.346-.4-.589-.634-.727a2.38 2.38 0 0 0-.934-.173H70v3.255c0 .416-.167.589-.501.589zm.501-4.605h2.236c1.335 0 2.002-.589 2.002-1.731s-.667-1.697-2.002-1.697h-2.236v3.428zm8.007-3.013c-.434 0-.634-.208-.634-.623s.2-.623.634-.623.634.208.634.623-.234.623-.634.623zm0 7.583c-.334 0-.467-.173-.467-.554v-5.09c0-.346.167-.519.467-.519.334 0 .501.173.501.519v5.09c-.033.381-.167.554-.501.554zm5.538.069c-.934 0-1.635-.277-2.202-.831-.534-.554-.801-1.316-.801-2.285 0-.623.133-1.177.367-1.662s.567-.831 1.001-1.108.901-.381 1.468-.381c.801 0 1.401.277 1.868.796.434.519.667 1.247.667 2.181 0 .242-.134.381-.434.381H81.51c.033.693.234 1.212.567 1.593.367.346.834.554 1.468.554a3.18 3.18 0 0 0 .801-.104 2.81 2.81 0 0 0 .801-.381c.2-.139.334-.139.467-.069s.2.173.2.346c0 .139-.067.277-.234.416-.267.208-.567.346-.934.45l-1.101.104zm-.167-5.54c-.567 0-1.001.173-1.301.519-.334.346-.501.831-.567 1.42h3.537c-.033-.623-.167-1.108-.467-1.42-.267-.346-.667-.519-1.201-.519zm6.307 5.54c-.567 0-1.001-.173-1.335-.554s-.467-.9-.467-1.593v-6.337c0-.346.167-.519.467-.519.334 0 .501.173.501.519v6.267c0 .9.334 1.35 1.034 1.35h.367c.1 0 .167 0 .2.069.033.035.067.139.067.312 0 .277-.133.45-.4.485-.067 0-.134.035-.2.035s-.167-.035-.233-.035zm4.604 0c-.701 0-1.201-.173-1.535-.554s-.5-.935-.5-1.627v-3.186h-.801c-.267 0-.434-.139-.434-.416 0-.242.134-.381.434-.381h.801v-1.42c0-.346.167-.519.5-.519s.467.173.467.519v1.42h1.501c.267 0 .434.139.434.381 0 .277-.134.416-.434.416h-1.501v3.082c0 .485.1.831.3 1.073s.5.381.934.381c.167 0 .267 0 .4-.035s.2-.035.267-.035.133 0 .167.069a.71.71 0 0 1 .067.312.67.67 0 0 1-.067.277c-.033.069-.1.139-.2.173s-.234.069-.367.104c-.167-.069-.3-.035-.434-.035zm4.838 0c-.567 0-1.068-.139-1.468-.381s-.734-.623-.968-1.108-.334-1.039-.334-1.662.1-1.212.334-1.662c.234-.485.567-.831.968-1.108.4-.242.901-.381 1.468-.381s1.068.139 1.468.381.734.623.968 1.108.334 1.039.334 1.662-.101 1.212-.334 1.662c-.234.485-.567.831-.968 1.108a3 3 0 0 1-1.468.381zm0-.831a1.66 1.66 0 0 0 1.301-.589c.334-.381.501-.969.501-1.731s-.167-1.35-.501-1.731a1.66 1.66 0 0 0-1.301-.589c-.567 0-1.001.208-1.301.589-.334.416-.501.97-.501 1.731s.167 1.316.501 1.731c.3.381.734.589 1.301.589zm5.339.797c-.334 0-.501-.173-.501-.519v-5.194c0-.346.167-.519.467-.519.334 0 .468.173.468.519v.658c.166-.381.4-.658.734-.866s.734-.312 1.201-.346c.267-.035.4.104.4.416.033.277-.133.45-.434.485l-.2.035c-.567.035-.967.242-1.268.554s-.433.727-.433 1.281v3.012c.066.312-.101.485-.434.485zm6.172.034c-.567 0-1.001-.173-1.334-.554s-.467-.9-.467-1.593v-6.337c0-.346.166-.519.467-.519.333 0 .5.173.5.519v6.267c0 .9.334 1.35 1.035 1.35h.367c.1 0 .166 0 .2.069.033.035.066.139.066.312 0 .277-.133.45-.4.485-.067 0-.133.035-.2.035s-.167-.035-.234-.035zm4.238 0c-.401 0-.768-.069-1.068-.242s-.567-.381-.734-.658c-.2-.277-.267-.589-.267-.935 0-.45.1-.796.334-1.039s.6-.45 1.101-.554 1.201-.173 2.068-.173h.401v-.381c0-.519-.1-.9-.3-1.108-.201-.242-.534-.346-.968-.346a3.44 3.44 0 0 0-.834.104c-.267.069-.567.208-.868.346-.133.069-.267.104-.333.035a.31.31 0 0 1-.201-.208c-.033-.104-.033-.208 0-.312s.101-.208.234-.242c.334-.173.701-.312 1.034-.416a3.33 3.33 0 0 1 1.001-.139c.768 0 1.302.208 1.669.589s.533.969.533 1.766v3.393c0 .346-.133.519-.433.519s-.467-.173-.467-.519v-.658a2.1 2.1 0 0 1-.701.831c-.434.242-.801.346-1.201.346zm.133-.762a1.49 1.49 0 0 0 1.168-.519c.3-.346.467-.796.467-1.316v-.381h-.367c-.634 0-1.168.035-1.535.104s-.634.173-.767.312-.234.346-.234.623c0 .346.1.623.334.831a1.35 1.35 0 0 0 .934.346zm5.472.728c-.334 0-.5-.173-.5-.519v-5.194c0-.346.166-.519.467-.519.333 0 .467.173.467.519v.658a1.84 1.84 0 0 1 .734-.866c.334-.208.734-.312 1.201-.346.267-.035.401.104.401.416.033.277-.134.45-.434.485l-.2.035c-.568.035-.968.242-1.268.554s-.434.727-.434 1.281v3.012c.067.312-.1.485-.434.485zm8.142 0c-.201 0-.334-.069-.434-.242-.1-.139-.067-.312.067-.485l2.769-3.878-2.603-3.636c-.133-.173-.167-.346-.066-.519s.233-.242.4-.242c.2 0 .367.104.534.346l2.302 3.29 2.302-3.29c.167-.208.334-.346.534-.346s.334.069.401.242c.1.139.066.312-.067.519l-2.603 3.636 2.77 3.878c.133.173.133.312.066.485-.066.139-.233.242-.433.242s-.367-.104-.534-.346l-2.436-3.463-2.436 3.463c-.166.242-.333.346-.533.346zm8.975-7.618c-.434 0-.634-.208-.634-.623s.2-.623.634-.623.634.208.634.623-.234.623-.634.623zm0 7.583c-.334 0-.467-.173-.467-.554v-5.09c0-.346.166-.519.467-.519.333 0 .5.173.5.519v5.09c-.033.381-.2.554-.5.554zm5.105.069a2.54 2.54 0 0 1-1.368-.381c-.401-.242-.701-.623-.901-1.108s-.334-1.039-.334-1.662c0-.658.1-1.212.334-1.662.2-.485.5-.831.901-1.073a2.54 2.54 0 0 1 1.368-.381c.467 0 .867.104 1.201.312a1.9 1.9 0 0 1 .767.866v-3.359c0-.346.167-.519.501-.519s.467.173.467.519v7.929c0 .346-.167.519-.467.519s-.467-.173-.467-.519v-.658c-.167.381-.434.658-.801.866-.334.173-.734.312-1.201.312zm.2-.831a1.66 1.66 0 0 0 1.301-.589c.334-.381.501-.97.501-1.731s-.167-1.35-.501-1.731a1.66 1.66 0 0 0-1.301-.589c-.567 0-1.001.208-1.301.589-.334.416-.501.97-.501 1.731s.167 1.316.501 1.731a1.66 1.66 0 0 0 1.301.589zm5.705.797c-.333 0-.467-.173-.467-.519v-5.194c0-.346.167-.519.467-.519.334 0 .468.173.468.519v.589a1.76 1.76 0 0 1 .734-.831c.3-.208.667-.277 1.101-.277.901 0 1.501.416 1.768 1.246.167-.381.434-.692.767-.9a2.24 2.24 0 0 1 1.202-.346c1.301 0 1.935.796 1.935 2.389v3.324c0 .346-.167.519-.501.519s-.467-.173-.467-.519v-3.29c0-.554-.1-.969-.267-1.212-.2-.277-.5-.381-.934-.381a1.42 1.42 0 0 0-1.134.519c-.267.346-.434.831-.434 1.385v2.978c0 .346-.167.519-.501.519s-.467-.173-.467-.519v-3.29c0-.554-.1-.969-.267-1.212-.2-.277-.5-.381-.934-.381-.467 0-.867.173-1.134.519s-.401.831-.401 1.385v2.978c-.066.346-.2.519-.534.519zm12.546.034c-.801 0-1.468-.277-1.902-.796-.467-.519-.667-1.246-.667-2.216 0-.242.133-.381.4-.381h4.004c-.033-.693-.233-1.212-.6-1.558s-.835-.554-1.468-.554a3.19 3.19 0 0 0-.801.104c-.267.069-.534.208-.801.381-.2.104-.334.139-.434.069s-.167-.208-.167-.346c0-.173.067-.277.234-.416.267-.208.601-.346.934-.45.367-.104.701-.173 1.068-.173.934 0 1.668.277 2.202.831s.801 1.316.801 2.285c0 .623-.1 1.212-.334 1.662-.233.485-.567.831-.967 1.108a2.64 2.64 0 0 1-1.502.45zm0-.762c.534 0 .934-.173 1.268-.519.3-.346.5-.831.567-1.42h-3.503c.033.623.167 1.108.467 1.454s.634.485 1.201.485zm7.107.762c-.701 0-1.201-.173-1.535-.554s-.5-.935-.5-1.627v-3.186h-.835c-.266 0-.433-.139-.433-.416 0-.242.133-.381.433-.381h.801v-1.42c0-.346.167-.519.501-.519s.467.173.467.519v1.42h1.501c.267 0 .434.139.434.381 0 .277-.133.416-.434.416h-1.501v3.082c0 .485.1.831.3 1.073s.501.381.934.381c.167 0 .267 0 .401-.035s.2-.035.267-.035.133 0 .167.069a.72.72 0 0 1 .066.312.68.68 0 0 1-.066.277.35.35 0 0 1-.201.173 5.22 5.22 0 0 1-.367.104c-.133-.069-.267-.035-.4-.035zm3.003-7.652c-.434 0-.634-.208-.634-.623s.2-.623.634-.623.634.208.634.623-.2.623-.634.623zm0 7.583c-.334 0-.467-.173-.467-.554v-5.09c0-.346.166-.519.467-.519.333 0 .5.173.5.519v5.09c0 .381-.167.554-.5.554z"/></g><path d="M58.524 6.891h-.167v42.382h.167V6.891z" fill="#58595b"/></g><defs><clipPath id="A"><path fill="#fff" d="M0 0h172v50H0z"/></clipPath></defs></svg>