<svg width="30" height="36" viewBox="0 0 30 36" fill="none" xmlns="http://www.w3.org/2000/svg">
<g clip-path="url(#clip0)">
<path d="M27.9001 0V35.25L15.0001 29.4L2.1001 35.25V0H27.9001Z" fill="#FFBB12"/>
<path d="M26.8501 1.05V33.45L15.4501 28.35L15.0001 28.2L14.5501 28.35L3.1501 33.45V1.05H26.8501ZM27.9001 0H2.1001V35.25L15.0001 29.4L27.9001 35.25V0Z" fill="#F9D953"/>
<g opacity="0.2">
<path opacity="0.2" d="M27.9001 0V10.8L9.7501 31.8L2.1001 35.25V25.2L23.8501 0H27.9001Z" fill="white"/>
<path opacity="0.2" d="M13.9501 0L2.1001 13.65V9.15L9.9001 0H13.9501Z" fill="white"/>
<path opacity="0.2" d="M27.9 19.35V26.4L22.5 32.85L18 30.75L27.9 19.35Z" fill="white"/>
</g>
<path d="M27.9001 5.25H2.1001V13.8H27.9001V5.25Z" fill="#C6A812"/>
<path d="M29.9999 12.45L27.8999 14.4V12.45H29.9999Z" fill="#B80736"/>
<path d="M0 12.45L2.1 14.4V12.45H0Z" fill="#B80736"/>
<path d="M30 3.89996H0V12.45H30V3.89996Z" fill="#F41F4C"/>
<g opacity="0.3">
<path opacity="0.3" d="M30 3.89996V8.39996L26.4 12.45H13.05L20.4 3.89996H30Z" fill="white"/>
<path opacity="0.3" d="M10.5 3.89996L3.15 12.45H0V11.55L6.6 3.89996H10.5Z" fill="white"/>
</g>
<path d="M9.15 6.59996H7.5V6.14996H11.25V6.74996H9.75V11.25H9.15V6.59996Z" fill="#B80736"/>
<path d="M17.85 8.55C17.85 10.35 16.8 11.25 15.45 11.25C14.1 11.25 13.2 10.2 13.2 8.7C13.2 7.05 14.25 6 15.6 6C16.95 6 17.85 7.05 17.85 8.55ZM13.95 8.7C13.95 9.75 14.55 10.8 15.6 10.8C16.65 10.8 17.25 9.9 17.25 8.7C17.25 7.65 16.65 6.6 15.6 6.6C14.55 6.6 13.95 7.5 13.95 8.7Z" fill="#B80736"/>
<path d="M20.55 6.15C21 6.15 21.3 6 21.9 6C22.5 6 22.95 6.15 23.25 6.45C23.55 6.75 23.7 7.05 23.7 7.5C23.7 7.95 23.55 8.25 23.25 8.55C22.95 8.85 22.35 9.15 21.75 9.15C21.6 9.15 21.3 9.15 21.15 9.15V11.25H20.55V6.15ZM21.3 8.55C21.45 8.55 21.6 8.55 21.9 8.55C22.65 8.55 23.1 8.1 23.1 7.5C23.1 6.9 22.65 6.45 21.9 6.45C21.6 6.45 21.45 6.45 21.3 6.45V8.55Z" fill="#B80736"/>
<path d="M9.15 6.14993H7.5V5.54993H11.25V6.14993H9.75V10.6499H9.15V6.14993Z" fill="white"/>
<path d="M17.85 8.09998C17.85 9.89998 16.8 10.8 15.45 10.8C14.1 10.8 13.2 9.74998 13.2 8.24998C13.2 6.59998 14.25 5.54998 15.6 5.54998C16.95 5.39998 17.85 6.59998 17.85 8.09998ZM13.95 8.09998C13.95 9.14998 14.55 10.2 15.6 10.2C16.65 10.2 17.25 9.29998 17.25 8.09998C17.25 7.04998 16.65 5.99998 15.6 5.99998C14.55 5.99998 13.95 7.04998 13.95 8.09998Z" fill="white"/>
<path d="M20.5499 5.54996C20.8499 5.54996 21.2999 5.39996 21.7499 5.39996C22.3499 5.39996 22.7999 5.54996 23.0999 5.84996C23.3999 6.14996 23.5499 6.44996 23.5499 6.89996C23.5499 7.34996 23.3999 7.64996 23.0999 7.94996C22.7999 8.24996 22.1999 8.54996 21.5999 8.54996C21.4499 8.54996 21.1499 8.54996 20.9999 8.54996V10.65H20.3999V5.54996H20.5499ZM21.2999 8.09996C21.4499 8.09996 21.5999 8.09996 21.8999 8.09996C22.6499 8.09996 23.0999 7.64996 23.0999 7.04996C23.0999 6.44996 22.6499 5.99996 21.8999 5.99996C21.5999 5.99996 21.4499 5.99996 21.2999 5.99996V8.09996Z" fill="white"/>
<path d="M10.8 18L9.3 18.75L9 18L10.8 16.95H11.85V25.5H10.8V18Z" fill="#C6A505"/>
<path d="M20.7001 21.15C20.7001 24 19.6501 25.65 17.7001 25.65C16.0501 25.65 14.8501 24.15 14.8501 21.3C14.8501 18.45 16.0501 16.8 17.8501 16.8C19.6501 16.8 20.7001 18.45 20.7001 21.15ZM16.0501 21.3C16.0501 23.55 16.8001 24.75 17.8501 24.75C19.0501 24.75 19.6501 23.4 19.6501 21.15C19.6501 19.05 19.0501 17.7 17.8501 17.7C16.8001 17.7 16.0501 19.05 16.0501 21.3Z" fill="#C6A505"/>
<path d="M24.3001 19.95L24.9001 21L25.9501 21.15L25.2001 22.05L25.3501 23.1L24.3001 22.65L23.4001 23.1L23.5501 22.05L22.6501 21.15L23.8501 21L24.3001 19.95Z" fill="#C49706"/>
<path d="M5.70005 19.95L5.10005 21L4.05005 21.15L4.80005 22.05L4.65005 23.1L5.70005 22.65L6.60005 23.1L6.45005 22.05L7.35005 21.15L6.15005 21L5.70005 19.95Z" fill="#C49706"/>
<path d="M10.8 17.4L9.3 18.15L9 17.25L10.8 16.2H11.85V24.75H10.8V17.4Z" fill="white"/>
<path d="M20.7001 20.55C20.7001 23.4 19.6501 25.05 17.7001 25.05C16.0501 25.05 14.8501 23.55 14.8501 20.7C14.8501 17.85 16.0501 16.2 17.8501 16.2C19.6501 16.2 20.7001 17.7 20.7001 20.55ZM16.0501 20.55C16.0501 22.8 16.8001 24 17.8501 24C19.0501 24 19.6501 22.65 19.6501 20.4C19.6501 18.3 19.0501 16.95 17.8501 16.95C16.8001 17.1 16.0501 18.3 16.0501 20.55Z" fill="white"/>
<path d="M24.3001 19.35L24.9001 20.4L25.9501 20.55L25.2001 21.3L25.3501 22.5L24.3001 21.9L23.4001 22.5L23.5501 21.3L22.6501 20.55L23.8501 20.4L24.3001 19.35Z" fill="white"/>
<path d="M5.70005 19.35L5.10005 20.4L4.05005 20.55L4.80005 21.3L4.65005 22.5L5.70005 21.9L6.60005 22.5L6.45005 21.3L7.35005 20.55L6.15005 20.4L5.70005 19.35Z" fill="white"/>
</g>
<defs>
<clipPath id="clip0">
<rect width="30" height="35.25" fill="white"/>
</clipPath>
</defs>
</svg>
