<svg width="47" height="38" viewBox="0 0 47 38" fill="none" xmlns="http://www.w3.org/2000/svg">
<path d="M32 16.8125C32 15.1875 30.625 13.8125 29 13.8125H23.5L22.6875 11.8125C22.25 10.625 21.125 9.8125 19.875 9.8125H12.0625C10.8125 9.8125 9.6875 10.625 9.25 11.8125L8.5 13.8125H3C1.3125 13.8125 0 15.1875 0 16.8125V34.8125C0 36.5 1.3125 37.8125 3 37.8125H29C30.625 37.8125 32 36.5 32 34.8125V16.8125ZM23.5 25.8125C23.5 30 20.125 33.3125 16 33.3125C11.8125 33.3125 8.5 30 8.5 25.8125C8.5 21.6875 11.8125 18.3125 16 18.3125C20.125 18.3125 23.5 21.6875 23.5 25.8125ZM21.5 25.8125C21.5 22.8125 19 20.3125 16 20.3125C12.9375 20.3125 10.5 22.8125 10.5 25.8125C10.5 28.875 12.9375 31.3125 16 31.3125C19 31.3125 21.5 28.875 21.5 25.8125Z" fill="#A9A9A9"/>
<path d="M37.7969 10.1875C37.7969 9.63521 37.3492 9.1875 36.7969 9.1875H33.0625C32.5102 9.1875 32.0625 8.73979 32.0625 8.1875V6.76562C32.0625 6.21334 32.5102 5.76562 33.0625 5.76562H36.7969C37.3492 5.76562 37.7969 5.31791 37.7969 4.76562V1C37.7969 0.447715 38.2446 0 38.7969 0H40.2188C40.771 0 41.2188 0.447715 41.2188 1V4.76562C41.2188 5.31791 41.6665 5.76562 42.2188 5.76562H45.9375C46.4898 5.76562 46.9375 6.21334 46.9375 6.76562V8.1875C46.9375 8.73978 46.4898 9.1875 45.9375 9.1875H42.2188C41.6665 9.1875 41.2188 9.63522 41.2188 10.1875V13.875C41.2188 14.4273 40.771 14.875 40.2188 14.875H38.7969C38.2446 14.875 37.7969 14.4273 37.7969 13.875V10.1875Z" fill="#A9A9A9"/>
</svg>
