<svg width="80" height="68" viewBox="0 0 80 68" fill="none" xmlns="http://www.w3.org/2000/svg">
<path d="M35.2 6.39779V3.49106C35.2 1.72379 33.7674 0.291016 32 0.291016H3.20005C1.43261 0.291016 0 1.72362 0 3.49106V22.3251H80V11.7312C80 9.96393 78.5674 8.53116 76.7999 8.53116H37.3334C36.1551 8.53116 35.2 7.57603 35.2 6.39779Z" fill="#A9A9A9"/>
<path d="M75.7333 67.7088H4.26673C1.91026 67.7088 0 65.7985 0 63.442V21.564H35.3194C36.2194 21.564 37.0778 21.1851 37.6841 20.52L41.6155 16.208C42.2218 15.543 43.0802 15.1641 43.9802 15.1641H80V63.442C80 65.7985 78.0897 67.7088 75.7333 67.7088Z" fill="#C4C4C4"/>
</svg>
