<svg xmlns="http://www.w3.org/2000/svg" width="21" height="22" fill="none"  xmlns:v="https://vecta.io/nano"><path d="M20.713 18.795l-4.102-4.101c-.205-.164-.451-.287-.697-.287h-.656c1.107-1.435 1.805-3.24 1.805-5.25 0-4.676-3.855-8.531-8.531-8.531C3.814.625 0 4.48 0 9.156c0 4.717 3.814 8.531 8.531 8.531 1.969 0 3.773-.656 5.25-1.805v.697a.96.96 0 0 0 .287.697l4.061 4.061c.41.41 1.025.41 1.394 0l1.149-1.148c.41-.369.41-.984.041-1.395zM8.531 14.406c-2.912 0-5.25-2.338-5.25-5.25 0-2.871 2.338-5.25 5.25-5.25a5.29 5.29 0 0 1 5.25 5.25c0 2.912-2.379 5.25-5.25 5.25z" fill="#f79e02"/></svg>